<svg width="336" height="79" viewBox="0 0 336 79" fill="none" xmlns="http://www.w3.org/2000/svg">
<g clip-path="url(#clip0_60_69)">
<path d="M0.0805054 33.0107L0.321943 31.076L2.77655 41.1929L2.69607 45.3847L0.0805054 33.0107Z" fill="#A4A49C"/>
<path d="M0.845013 31.0357L0.321899 31.076L2.61555 42.4423L3.9837 41.2332L0.845013 31.0357Z" fill="#ECECEC"/>
<path d="M335.034 14.9536L335.638 14.2684L335.879 21.8056L333.666 23.2969L335.034 14.9536Z" fill="#CDCDC4"/>
<path d="M335.638 14.2684L335.879 14.3087V21.8056H335.034L335.638 14.2684Z" fill="#ECECEC"/>
<path d="M160.998 44.4577C159.55 44.9413 158.946 45.8684 158.343 46.0296C152.669 33.6153 145.989 16.9689 139.189 2.78112C139.591 2.74082 139.832 3.14388 140.034 3.54694C141.241 6.32806 142.649 8.74643 144.138 11.7694C150.254 24.1434 157.095 41.3944 160.998 44.4577ZM158.343 46.0296C158.141 46.0699 157.819 46.2311 157.417 46.473C152.709 33.8571 145.265 16.6061 138.746 2.78112C138.907 2.78112 139.054 2.78112 139.189 2.78112C145.989 16.9689 152.669 33.6153 158.343 46.0296ZM157.417 46.473C154.641 48.1658 147.277 53.8893 146.15 54.1714C142.77 37.4041 139.028 19.9112 135.647 3.14388C136.492 2.90204 137.78 2.82143 138.746 2.78112C145.265 16.6061 152.709 33.8571 157.417 46.473Z" fill="url(#paint0_linear_60_69)"/>
<path d="M334.35 23.4582C331.654 24.627 328.314 26.4408 326.021 27.5694C298.457 41.2332 265.943 48.0449 235.884 58.4842C239.828 56.0927 243.758 53.7146 247.674 51.35C250.37 50.4633 252.946 49.6168 255.4 48.7704C298.215 39.2985 306.504 34.0587 335.638 22.0878C335.276 22.4908 334.833 22.9745 334.35 23.4582ZM335.638 22.0878C306.504 34.0587 298.215 39.2985 255.4 48.7704C252.946 49.6168 250.37 50.4633 247.674 51.35C247.862 51.2157 248.05 51.0947 248.238 50.9872C250.008 50.423 251.658 49.7378 253.308 49.1735C254.153 48.8913 254.998 48.6495 255.843 48.3673C297.974 39.0566 306.947 33.7362 335.879 21.8056C335.96 21.9265 335.759 21.9668 335.638 22.0878ZM335.879 21.8056C306.947 33.7362 297.974 39.0566 255.843 48.3673C254.998 48.6495 254.153 48.8913 253.308 49.1735C251.658 49.7378 250.008 50.423 248.238 50.9872C249.74 50.0736 251.229 49.16 252.704 48.2464C254.153 47.3597 255.521 46.3117 257.05 45.6265C280.51 41.2735 310.569 32.124 335.034 21.4832C335.276 21.4832 335.759 21.5638 335.879 21.8056Z" fill="url(#paint1_linear_60_69)"/>
<path fill-rule="evenodd" clip-rule="evenodd" d="M267.794 44.4577C264.414 46.2714 260.712 48.0449 256.889 49.7781C243.65 55.7837 228.48 61.3862 217.575 65.2556C214.436 66.3842 211.62 67.3515 209.326 68.1577C203.008 70.3342 196.731 72.5913 190.333 74.4454C174.438 79.1209 157.618 81.499 146.23 71.7449C145.104 70.8044 144.044 69.7296 143.052 68.5204C142.327 67.674 141.603 66.8276 141.12 65.9005C140.932 65.5512 140.785 65.1884 140.677 64.8123C140.516 64.248 140.436 63.6031 140.557 62.9179C140.637 62.2461 140.865 61.5206 141.241 60.7413C143.132 56.7913 146.995 53.6878 150.375 51.0276C155.003 47.4403 159.952 44.2561 164.982 41.2735C174.921 35.3082 186.711 29.1816 198.26 23.5388C204.98 20.274 211.579 17.1704 217.656 14.349C226.83 10.1168 234.757 6.52959 240.029 4.15153C252.342 -1.49132 262.482 -0.483672 270.047 3.66786C272.663 5.07857 274.997 6.89235 276.969 8.90765C277.666 9.60629 278.323 10.3452 278.94 11.1245C281.757 14.5908 283.769 18.5408 284.856 22.3699C284.99 22.8267 285.11 23.2969 285.218 23.7806C285.459 24.9898 285.66 26.4408 285.58 27.8112C285.54 28.6577 285.419 29.5041 285.137 30.2699C284.493 32.1643 282.924 34.1393 280.59 36.1949C277.532 38.8551 273.146 41.6362 267.794 44.4577Z" fill="url(#paint2_linear_60_69)"/>
<g style="mix-blend-mode:multiply">
<path d="M146.23 71.7449C145.104 70.8044 144.044 69.7296 143.051 68.5204C142.327 67.674 141.603 66.8276 141.12 65.9005C140.986 65.6049 140.865 65.3228 140.758 65.0541C160.435 58.1617 183.975 45.5862 194.196 42.5633C209.205 38.1296 226.911 44.901 239.425 44.6189C251.899 44.3367 272.462 27.0857 282.039 26.9648C283.326 26.9648 284.695 27.0051 285.58 27.8515C285.54 28.698 285.379 29.5041 285.137 30.2699C284.493 32.1643 282.924 34.1393 280.59 36.1949C277.532 38.8551 273.146 41.6362 267.794 44.4577C264.414 46.2714 260.712 48.0449 256.889 49.7781C243.65 55.7837 228.48 61.3862 217.575 65.2556C214.436 66.3842 211.62 67.3515 209.326 68.1577C203.008 70.3342 196.731 72.5913 190.333 74.4454C174.438 79.1209 157.618 81.499 146.23 71.7449Z" fill="#ED7D91"/>
</g>
<g style="mix-blend-mode:multiply">
<path d="M261.597 8.70612C264.172 8.30306 266.828 8.10153 269.565 7.98061L272.462 12.2934C269.283 12.3337 266.225 12.5352 263.247 12.8173L261.597 8.70612Z" fill="#ED7D91"/>
<path d="M275.641 7.98061C273.79 7.85969 271.979 7.85969 270.168 7.98061L273.106 12.2934C275.077 11.9306 277.009 11.7291 278.981 11.6082C277.975 10.3184 276.969 9.06888 275.641 7.98061Z" fill="#ED7D91"/>
<path d="M261.034 8.78674C258.378 9.91531 255.843 11.2454 253.589 13.301C253.08 14.0803 252.731 14.873 252.543 15.6791C255.561 14.5505 258.861 13.5429 262.563 12.8173L261.034 8.78674Z" fill="#ED7D91"/>
</g>
<path d="M300.951 62.6357C298.457 64.9735 295.76 66.5051 292.139 67.5934C293.185 61.8296 293.668 56.2673 293.95 50.3827C298.819 50.302 303.205 50.0602 306.786 50.5439C306.867 55.1791 304.251 59.5321 300.951 62.6357ZM306.786 50.5439C303.205 50.0602 298.819 50.302 293.95 50.3827C293.977 49.6303 294.003 48.8779 294.03 48.1255C298.819 48.0449 303.165 49.0122 306.746 49.5765C306.773 49.899 306.786 50.2214 306.786 50.5439ZM306.746 49.5765C303.165 49.0122 298.819 48.0449 294.03 48.1255C294.03 45.0622 293.829 41.9587 293.386 38.9357C297.772 38.8954 302.722 44.5786 305.861 45.8684C306.303 47.0372 306.625 48.2867 306.746 49.5765ZM305.861 45.8684C302.722 44.5786 297.772 38.8954 293.386 38.9357C293.279 38.2908 293.158 37.6728 293.024 37.0816C296.847 37.0816 300.267 38.6133 302.762 41.1122C304.09 42.4423 305.177 44.0949 305.861 45.8684ZM292.139 67.5934C290.851 67.9964 287.672 68.1577 286.224 68.077C282.32 67.8352 279.182 67.2709 275.761 65.0541C274.031 63.2 273.428 59.9352 272.985 57.4362C278.9 55.6628 282.723 50.2617 293.95 50.3827C293.668 56.2673 293.185 61.8296 292.139 67.5934ZM293.95 50.3827C282.723 50.2617 278.9 55.6628 272.985 57.4362C272.824 56.657 272.73 55.8643 272.703 55.0582C278.538 52.9219 283.005 48.0046 294.03 48.1255C294.003 48.8779 293.977 49.6303 293.95 50.3827ZM294.03 48.1255C283.005 48.0046 278.538 52.9219 272.703 55.0582C272.542 51.7934 273.307 49.2541 274.635 46.3117C279.423 41.1526 284.574 38.8551 293.386 38.9357C293.829 41.9587 294.03 45.0622 294.03 48.1255ZM293.386 38.9357C284.574 38.8551 279.423 41.1526 274.635 46.3117C275.44 44.5383 276.446 43.0066 277.653 41.7974C282.039 38.573 287.632 37.0816 293.024 37.0816C293.158 37.6728 293.279 38.2908 293.386 38.9357ZM275.761 65.0541C275.118 64.651 274.527 64.2077 273.991 63.724C272.18 62.152 270.852 60.177 270.369 57.9199C271.295 57.8393 272.14 57.6781 272.985 57.4362C273.428 59.9352 274.031 63.2 275.761 65.0541ZM272.985 57.4362C272.14 57.6781 271.295 57.8393 270.369 57.9199C270.289 57.4362 270.235 56.9526 270.208 56.4689C271.094 56.3077 271.898 55.3403 272.703 55.0582C272.73 55.8643 272.824 56.657 272.985 57.4362ZM272.703 55.0582C271.898 55.3403 271.094 56.3077 270.208 56.4689C270.047 54.4536 270.41 53.1235 271.013 51.1888C271.818 50.2214 274.112 46.876 274.635 46.3117C273.307 49.2541 272.542 51.7934 272.703 55.0582ZM274.635 46.3117C274.112 46.876 271.818 50.2214 271.013 51.1888C271.939 48.1658 273.629 45.425 275.963 43.2485C276.499 42.7379 277.063 42.2543 277.653 41.7974C276.446 43.0066 275.44 44.5383 274.635 46.3117Z" fill="url(#paint3_linear_60_69)"/>
<path d="M279.222 50.8663C279.222 58.4842 285.379 64.6913 293.024 64.6913C300.629 64.6913 306.786 58.4842 306.786 50.8663C306.786 43.2485 300.629 37.0816 293.024 37.0816C285.379 37.0816 279.222 43.2485 279.222 50.8663Z" fill="url(#paint4_radial_60_69)"/>
<path d="M282.039 50.8663C282.039 56.9122 286.948 61.8296 293.024 61.8296C299.06 61.8296 303.969 56.9122 303.969 50.8663C303.969 44.8204 299.06 39.9031 293.024 39.9031C286.948 39.9031 282.039 44.8204 282.039 50.8663Z" fill="url(#paint5_radial_60_69)"/>
<path d="M292.863 61.225L294.312 61.1444C294.634 58.8469 294.07 56.5898 293.507 54.373L292.783 54.4133C293.668 56.7107 293.507 59.0082 292.863 61.225Z" fill="url(#paint6_linear_60_69)"/>
<path d="M291.093 61.0638L292.582 61.225C293.266 59.0485 293.105 56.751 292.944 54.4536L292.219 54.373C292.702 56.751 292.139 58.9679 291.093 61.0638Z" fill="url(#paint7_linear_60_69)"/>
<path d="M289.403 60.6204L290.811 61.0235C291.897 58.9679 292.139 56.7107 292.38 54.4133L291.656 54.2117C291.737 56.6704 290.771 58.726 289.403 60.6204Z" fill="url(#paint8_linear_60_69)"/>
<path d="M287.793 59.8949L289.121 60.5398C290.529 58.6857 291.173 56.4689 291.817 54.252L291.173 53.9699C290.771 56.3883 289.483 58.2827 287.793 59.8949Z" fill="url(#paint9_linear_60_69)"/>
<path d="M286.344 58.8469L287.552 59.7337C289.242 58.202 290.248 56.1061 291.254 54.0505L290.69 53.6071C289.886 55.9449 288.276 57.5571 286.344 58.8469Z" fill="url(#paint10_linear_60_69)"/>
<path d="M285.097 57.6378L286.143 58.6857C288.075 57.4362 289.443 55.5821 290.771 53.7281L290.288 53.2041C289.121 55.3403 287.23 56.6704 285.097 57.6378Z" fill="url(#paint11_linear_60_69)"/>
<path d="M284.091 56.1867L284.936 57.3959C287.069 56.5495 288.719 54.9372 290.368 53.325L289.966 52.7204C288.437 54.6551 286.344 55.6224 284.091 56.1867Z" fill="url(#paint12_linear_60_69)"/>
<path d="M283.367 54.5745L283.93 55.9449C286.224 55.4612 288.115 54.1714 290.006 52.8413L289.725 52.1964C287.874 53.8087 285.66 54.4133 283.367 54.5745Z" fill="url(#paint13_linear_60_69)"/>
<path d="M282.884 52.8816L283.246 54.3326C285.54 54.2117 287.632 53.2847 289.765 52.3576L289.564 51.6321C287.471 52.9219 285.218 53.1235 282.884 52.8816Z" fill="url(#paint14_linear_60_69)"/>
<path d="M282.723 51.1082L282.844 52.5995C285.137 52.9219 287.35 52.3577 289.604 51.7934L289.523 51.0679C287.27 51.9546 284.976 51.7531 282.723 51.1082Z" fill="url(#paint15_linear_60_69)"/>
<path d="M282.884 49.375L282.723 50.826C284.936 51.5515 287.23 51.3903 289.523 51.2291L289.604 50.5036C287.189 50.9872 284.976 50.3827 282.884 49.375Z" fill="url(#paint16_linear_60_69)"/>
<path d="M283.326 47.6418L282.924 49.0929C284.976 50.1408 287.27 50.3826 289.564 50.6245L289.765 49.9393C287.31 49.9796 285.218 49.0525 283.326 47.6418Z" fill="url(#paint17_linear_60_69)"/>
<path d="M284.091 46.0699L283.447 47.4C285.258 48.8107 287.471 49.4153 289.684 50.0602L290.006 49.4153C287.592 49.0526 285.701 47.7225 284.091 46.0699Z" fill="url(#paint18_linear_60_69)"/>
<path d="M285.097 44.6189L284.212 45.8281C285.781 47.5209 287.833 48.5286 289.926 49.5362L290.328 48.9719C287.994 48.1658 286.385 46.5536 285.097 44.6189Z" fill="url(#paint19_linear_60_69)"/>
<path d="M286.344 43.3694L285.258 44.377C286.505 46.352 288.356 47.6821 290.207 49.0525L290.731 48.5689C288.598 47.3597 287.27 45.5056 286.344 43.3694Z" fill="url(#paint20_linear_60_69)"/>
<path d="M287.793 42.3617L286.546 43.1679C287.431 45.3041 289.04 46.9566 290.61 48.6092L291.213 48.2464C289.322 46.6745 288.316 44.6189 287.793 42.3617Z" fill="url(#paint21_linear_60_69)"/>
<path d="M289.362 41.5959L288.034 42.2005C288.517 44.4577 289.805 46.352 291.093 48.2867L291.737 48.0046C290.127 46.1505 289.523 43.9337 289.362 41.5959Z" fill="url(#paint22_linear_60_69)"/>
<path d="M291.052 41.1525L289.644 41.5153C289.725 43.8127 290.65 45.9087 291.616 48.0046L292.3 47.8434C291.012 45.7474 290.811 43.45 291.052 41.1525Z" fill="url(#paint23_linear_60_69)"/>
<path d="M292.823 40.9913L291.334 41.0719C291.052 43.3694 291.616 45.6265 292.139 47.8434L292.863 47.8031C291.978 45.5056 292.179 43.2082 292.823 40.9913Z" fill="url(#paint24_linear_60_69)"/>
<path d="M294.594 41.1526L293.105 40.9913C292.421 43.1679 292.582 45.4653 292.743 47.7628L293.427 47.8434C292.984 45.4653 293.547 43.2485 294.594 41.1526Z" fill="url(#paint25_linear_60_69)"/>
<path d="M296.284 41.5959L294.875 41.1929C293.789 43.2485 293.547 45.5056 293.306 47.8031L293.99 48.0046C293.95 45.5459 294.915 43.4903 296.284 41.5959Z" fill="url(#paint26_linear_60_69)"/>
<path d="M297.893 42.3214L296.565 41.6765C295.117 43.5306 294.513 45.7474 293.869 47.924L294.513 48.2464C294.875 45.8281 296.203 43.9337 297.893 42.3214Z" fill="url(#paint27_linear_60_69)"/>
<path d="M299.302 43.3694L298.135 42.4827C296.404 44.0143 295.398 46.1102 294.392 48.1658L294.996 48.6092C295.76 46.2714 297.37 44.6592 299.302 43.3694Z" fill="url(#paint28_linear_60_69)"/>
<path d="M300.549 44.5786L299.543 43.5306C297.571 44.7398 296.243 46.6342 294.875 48.4883L295.398 49.0122C296.565 46.876 298.457 45.5459 300.549 44.5786Z" fill="url(#paint29_linear_60_69)"/>
<path d="M301.595 46.0296L300.75 44.8204C298.617 45.6668 296.968 47.2791 295.318 48.8913L295.72 49.4959C297.249 47.5612 299.302 46.5939 301.595 46.0296Z" fill="url(#paint30_linear_60_69)"/>
<path d="M302.32 47.6418L301.716 46.2714C299.463 46.7551 297.571 48.0449 295.68 49.3347L295.962 50.0199C297.813 48.4077 299.986 47.8031 302.32 47.6418Z" fill="url(#paint31_linear_60_69)"/>
<path d="M302.762 49.3347L302.44 47.8837C300.106 48.0046 298.014 48.9316 295.921 49.8587L296.082 50.5842C298.175 49.2944 300.469 49.0929 302.762 49.3347Z" fill="url(#paint32_linear_60_69)"/>
<path d="M302.923 51.1082L302.843 49.6168C300.549 49.2944 298.336 49.8587 296.082 50.423L296.123 51.1485C298.416 50.2617 300.71 50.423 302.923 51.1082Z" fill="url(#paint33_linear_60_69)"/>
<path d="M302.802 52.8413L302.963 51.3903C300.75 50.6648 298.457 50.826 296.163 50.9872L296.082 51.7128C298.497 51.2291 300.71 51.8337 302.802 52.8413Z" fill="url(#paint34_linear_60_69)"/>
<path d="M302.32 54.5745L302.762 53.1235C300.71 52.0755 298.416 51.8337 296.123 51.5918L295.921 52.277C298.376 52.2367 300.468 53.1638 302.32 54.5745Z" fill="url(#paint35_linear_60_69)"/>
<path d="M301.595 56.1464L302.239 54.8163C300.428 53.4056 298.215 52.7607 296.002 52.1561L295.68 52.801C298.094 53.1638 299.986 54.4536 301.595 56.1464Z" fill="url(#paint36_linear_60_69)"/>
<path d="M300.589 57.5974L301.475 56.3883C299.905 54.6954 297.853 53.6878 295.76 52.6801L295.358 53.2444C297.652 54.0505 299.302 55.6628 300.589 57.5974Z" fill="url(#paint37_linear_60_69)"/>
<path d="M299.342 58.8469L300.388 57.8393C299.181 55.8643 297.33 54.5342 295.439 53.1638L294.915 53.6475C297.088 54.8566 298.416 56.7107 299.342 58.8469Z" fill="url(#paint38_linear_60_69)"/>
<path d="M297.893 59.8546L299.141 59.0485C298.255 56.9122 296.646 55.2597 295.036 53.6071L294.473 53.9699C296.364 55.5418 297.33 57.5975 297.893 59.8546Z" fill="url(#paint39_linear_60_69)"/>
<path d="M296.284 60.6204L297.652 60.0158C297.169 57.7587 295.881 55.8643 294.593 53.9296L293.95 54.2117C295.559 56.0658 296.163 58.2827 296.284 60.6204Z" fill="url(#paint40_linear_60_69)"/>
<path d="M294.594 61.0638L296.042 60.701C295.962 58.4036 294.996 56.3076 294.07 54.2117L293.386 54.373C294.634 56.4689 294.875 58.7663 294.594 61.0638Z" fill="url(#paint41_linear_60_69)"/>
<g style="mix-blend-mode:multiply">
<path d="M227.876 20.3949C227.876 21.6444 228.198 22.652 228.56 22.652C228.963 22.652 229.285 21.6444 229.285 20.3949C229.285 19.1454 228.963 18.1378 228.56 18.1378C228.198 18.1378 227.876 19.1454 227.876 20.3949Z" fill="#ED7D91"/>
<path d="M225.623 21.4832C225.623 22.7327 225.945 23.7403 226.347 23.7403C226.75 23.7403 227.072 22.7327 227.072 21.4832C227.072 20.2337 226.75 19.226 226.347 19.226C225.945 19.226 225.623 20.2337 225.623 21.4832Z" fill="#ED7D91"/>
<path d="M223.37 22.6117C223.37 23.8612 223.692 24.8689 224.094 24.8689C224.496 24.8689 224.818 23.8612 224.818 22.6117C224.818 21.3622 224.496 20.3143 224.094 20.3143C223.692 20.3143 223.37 21.3622 223.37 22.6117Z" fill="#ED7D91"/>
<path d="M221.116 23.7C221.116 24.9495 221.438 25.9571 221.84 25.9571C222.243 25.9571 222.565 24.9495 222.565 23.7C222.565 22.4505 222.243 21.4429 221.84 21.4429C221.438 21.4429 221.116 22.4505 221.116 23.7Z" fill="#ED7D91"/>
<path d="M218.903 24.8286C218.903 26.0781 219.225 27.0857 219.587 27.0857C219.989 27.0857 220.311 26.0781 220.311 24.8286C220.311 23.5388 219.989 22.5311 219.587 22.5311C219.225 22.5311 218.903 23.5388 218.903 24.8286Z" fill="#ED7D91"/>
<path d="M216.65 25.9168C216.65 27.1663 216.972 28.174 217.374 28.174C217.776 28.174 218.098 27.1663 218.098 25.9168C218.098 24.6674 217.776 23.6597 217.374 23.6597C216.972 23.6597 216.65 24.6674 216.65 25.9168Z" fill="#ED7D91"/>
<path d="M214.396 27.0051C214.396 28.2546 214.718 29.3026 215.12 29.3026C215.523 29.3026 215.845 28.2546 215.845 27.0051C215.845 25.7556 215.523 24.748 215.12 24.748C214.718 24.748 214.396 25.7556 214.396 27.0051Z" fill="#ED7D91"/>
<path d="M212.143 28.1337C212.143 29.3832 212.465 30.3908 212.867 30.3908C213.269 30.3908 213.591 29.3832 213.591 28.1337C213.591 26.8842 213.269 25.8765 212.867 25.8765C212.465 25.8765 212.143 26.8842 212.143 28.1337Z" fill="#ED7D91"/>
<path d="M209.889 29.2219C209.889 30.4714 210.252 31.5194 210.614 31.5194C211.016 31.5194 211.338 30.4714 211.338 29.2219C211.338 27.9725 211.016 26.9648 210.614 26.9648C210.252 26.9648 209.889 27.9725 209.889 29.2219Z" fill="#ED7D91"/>
<path d="M207.676 30.3505C207.676 31.6 207.998 32.6077 208.4 32.6077C208.803 32.6077 209.125 31.6 209.125 30.3505C209.125 29.101 208.803 28.0934 208.4 28.0934C207.998 28.0934 207.676 29.101 207.676 30.3505Z" fill="#ED7D91"/>
<path d="M205.423 31.4388C205.423 32.6883 205.745 33.6959 206.147 33.6959C206.549 33.6959 206.871 32.6883 206.871 31.4388C206.871 30.1893 206.549 29.1816 206.147 29.1816C205.745 29.1816 205.423 30.1893 205.423 31.4388Z" fill="#ED7D91"/>
<path d="M203.169 32.5673C203.169 33.8168 203.491 34.8245 203.894 34.8245C204.296 34.8245 204.618 33.8168 204.618 32.5673C204.618 31.3179 204.296 30.2699 203.894 30.2699C203.491 30.2699 203.169 31.3179 203.169 32.5673Z" fill="#ED7D91"/>
<path d="M200.916 33.6556C200.916 34.9051 201.238 35.9128 201.64 35.9128C202.043 35.9128 202.365 34.9051 202.365 33.6556C202.365 32.4061 202.043 31.3985 201.64 31.3985C201.238 31.3985 200.916 32.4061 200.916 33.6556Z" fill="#ED7D91"/>
<path d="M198.703 34.7842C198.703 36.0337 199.025 37.0413 199.427 37.0413C199.789 37.0413 200.111 36.0337 200.111 34.7842C200.111 33.5347 199.789 32.4867 199.427 32.4867C199.025 32.4867 198.703 33.5347 198.703 34.7842Z" fill="#ED7D91"/>
<path d="M196.449 35.8725C196.449 37.1219 196.771 38.1296 197.174 38.1296C197.576 38.1296 197.898 37.1219 197.898 35.8725C197.898 34.623 197.576 33.6153 197.174 33.6153C196.771 33.6153 196.449 34.623 196.449 35.8725Z" fill="#ED7D91"/>
<path d="M194.196 37.001C194.196 38.2505 194.518 39.2582 194.92 39.2582C195.323 39.2582 195.645 38.2505 195.645 37.001C195.645 35.7112 195.323 34.7036 194.92 34.7036C194.518 34.7036 194.196 35.7112 194.196 37.001Z" fill="#ED7D91"/>
<path d="M191.943 38.0893C191.943 39.3388 192.264 40.3464 192.667 40.3464C193.069 40.3464 193.391 39.3388 193.391 38.0893C193.391 36.8398 193.069 35.8321 192.667 35.8321C192.264 35.8321 191.943 36.8398 191.943 38.0893Z" fill="#ED7D91"/>
<path d="M189.729 39.1776C189.729 40.427 190.051 41.475 190.454 41.475C190.816 41.475 191.138 40.427 191.138 39.1776C191.138 37.9281 190.816 36.9204 190.454 36.9204C190.051 36.9204 189.729 37.9281 189.729 39.1776Z" fill="#ED7D91"/>
<path d="M187.476 40.3061C187.476 41.5556 187.798 42.5633 188.2 42.5633C188.603 42.5633 188.925 41.5556 188.925 40.3061C188.925 39.0566 188.603 38.049 188.2 38.049C187.798 38.049 187.476 39.0566 187.476 40.3061Z" fill="#ED7D91"/>
<path d="M185.223 41.3944C185.223 42.6439 185.544 43.6918 185.947 43.6918C186.349 43.6918 186.671 42.6439 186.671 41.3944C186.671 40.1449 186.349 39.1372 185.947 39.1372C185.544 39.1372 185.223 40.1449 185.223 41.3944Z" fill="#ED7D91"/>
<path d="M182.969 42.523C182.969 43.7725 183.291 44.7801 183.693 44.7801C184.096 44.7801 184.418 43.7725 184.418 42.523C184.418 41.2735 184.096 40.2658 183.693 40.2658C183.291 40.2658 182.969 41.2735 182.969 42.523Z" fill="#ED7D91"/>
<path d="M180.756 43.6112C180.756 44.8607 181.078 45.8684 181.48 45.8684C181.842 45.8684 182.164 44.8607 182.164 43.6112C182.164 42.3617 181.842 41.3541 181.48 41.3541C181.078 41.3541 180.756 42.3617 180.756 43.6112Z" fill="#ED7D91"/>
<path d="M178.503 44.7398C178.503 45.9893 178.824 46.9969 179.227 46.9969C179.629 46.9969 179.951 45.9893 179.951 44.7398C179.951 43.4903 179.629 42.4424 179.227 42.4424C178.824 42.4424 178.503 43.4903 178.503 44.7398Z" fill="#ED7D91"/>
<path d="M176.249 45.8281C176.249 47.0776 176.571 48.0852 176.973 48.0852C177.376 48.0852 177.698 47.0776 177.698 45.8281C177.698 44.5786 177.376 43.5709 176.973 43.5709C176.571 43.5709 176.249 44.5786 176.249 45.8281Z" fill="#ED7D91"/>
<path d="M173.996 46.9566C173.996 48.2061 174.318 49.2138 174.72 49.2138C175.122 49.2138 175.444 48.2061 175.444 46.9566C175.444 45.7071 175.122 44.6592 174.72 44.6592C174.318 44.6592 173.996 45.7071 173.996 46.9566Z" fill="#ED7D91"/>
<path d="M171.783 48.0449C171.783 49.2944 172.104 50.302 172.507 50.302C172.869 50.302 173.191 49.2944 173.191 48.0449C173.191 46.7954 172.869 45.7878 172.507 45.7878C172.104 45.7878 171.783 46.7954 171.783 48.0449Z" fill="#ED7D91"/>
<path d="M169.529 49.1332C169.529 50.423 169.851 51.4306 170.253 51.4306C170.656 51.4306 170.978 50.423 170.978 49.1332C170.978 47.8837 170.656 46.876 170.253 46.876C169.851 46.876 169.529 47.8837 169.529 49.1332Z" fill="#ED7D91"/>
<path d="M167.276 50.2617C167.276 51.5112 167.598 52.5189 168 52.5189C168.402 52.5189 168.724 51.5112 168.724 50.2617C168.724 49.0122 168.402 48.0046 168 48.0046C167.598 48.0046 167.276 49.0122 167.276 50.2617Z" fill="#ED7D91"/>
</g>
<path d="M171.179 63.9658C112.832 59.4918 58.0254 55.9046 4.94947 46.3117C3.863 46.0699 3.42036 45.949 2.93749 45.7071C2.77653 45.6668 2.69605 45.3847 2.61557 45.0219C62.492 54.373 129.129 55.7837 191.218 56.5495C186.792 59.4112 180.997 62.273 171.179 63.9658ZM191.218 56.5495C129.129 55.7837 62.492 54.373 2.61557 45.0219C2.49486 44.1755 2.5351 42.8051 2.57533 42.6036C66.2745 51.874 137.458 53.0429 200.393 50.3423C197.335 51.9949 194.679 54.2923 191.218 56.5495ZM200.393 50.3423C137.458 53.0429 66.2745 51.874 2.57533 42.6036C2.60216 42.4961 2.6424 42.3886 2.69605 42.2811C66.2343 51.3903 137.217 52.3173 200.755 49.4153C200.795 49.6974 200.755 50.1408 200.393 50.3423ZM200.755 49.4153C137.217 52.3173 66.2343 51.3903 2.69605 42.2811C2.93749 41.7974 3.33989 41.4347 3.90324 41.0719C65.6709 48.7704 128.203 51.2694 197.536 46.4326C198.421 46.9969 200.715 48.1255 200.755 49.4153Z" fill="url(#paint42_linear_60_69)"/>
<path d="M156.25 72.7929C153.795 75.1306 150.617 77.025 147.035 78.1133C148.081 72.3092 149.007 66.3842 149.248 60.5398C154.117 60.4592 158.503 60.2173 162.085 60.6607C162.205 65.3362 159.55 69.6893 156.25 72.7929ZM162.085 60.6607C158.503 60.2173 154.117 60.4592 149.248 60.5398C149.302 59.7874 149.329 59.035 149.329 58.2827C154.158 58.202 158.503 59.1694 162.045 59.7337C162.071 60.0293 162.085 60.3383 162.085 60.6607ZM162.045 59.7337C158.503 59.1694 154.158 58.202 149.329 58.2827C149.369 55.2194 149.168 52.1158 148.685 49.0929C153.111 49.0526 158.021 54.7357 161.159 56.0255C161.642 57.1944 161.924 58.4439 162.045 59.7337ZM161.159 56.0255C158.021 54.7357 153.111 49.0526 148.685 49.0929C148.578 48.448 148.47 47.8165 148.363 47.1985C152.146 47.1985 155.566 48.7704 158.061 51.2694C159.389 52.5995 160.475 54.2117 161.159 56.0255ZM147.035 78.1133C145.721 78.4895 144.353 78.7582 142.931 78.9194C139.028 79.3628 134.521 78.2745 131.06 76.0174C129.33 74.1633 128.726 70.8985 128.284 68.3995C134.239 66.626 138.022 60.4189 149.248 60.5398C149.007 66.3842 148.081 72.3092 147.035 78.1133ZM149.248 60.5398C138.022 60.4189 134.239 66.626 128.284 68.3995C128.123 67.6202 128.029 66.8276 128.002 66.0214C133.837 63.8852 138.343 58.1617 149.329 58.2827C149.329 59.035 149.302 59.7874 149.248 60.5398ZM149.329 58.2827C138.343 58.1617 133.837 63.8852 128.002 66.0214C127.841 62.7566 128.646 59.4112 129.974 56.4286C134.762 51.3097 139.873 49.0122 148.685 49.0929C149.168 52.1158 149.369 55.2194 149.329 58.2827ZM148.685 49.0929C139.873 49.0122 134.762 51.3097 129.974 56.4286C130.738 54.6954 131.784 53.1235 132.992 51.9546C137.337 48.6898 142.971 47.1985 148.363 47.1985C148.47 47.8165 148.578 48.448 148.685 49.0929ZM131.06 76.0174C130.443 75.6143 129.853 75.1709 129.29 74.6872C127.479 73.1153 126.151 71.1403 125.708 68.8832C126.634 68.8429 127.479 68.6816 128.284 68.3995C128.726 70.8985 129.33 74.1633 131.06 76.0174ZM128.284 68.3995C127.479 68.6816 126.634 68.8429 125.708 68.8832C125.601 68.3995 125.534 67.9158 125.507 67.4321C126.433 67.2709 127.197 66.3036 128.002 66.0214C128.029 66.8276 128.123 67.6202 128.284 68.3995ZM128.002 66.0214C127.197 66.3036 126.433 67.2709 125.507 67.4321C125.386 65.4168 125.708 63.2806 126.312 61.3459C127.117 60.3786 129.41 56.9929 129.974 56.4286C128.646 59.4112 127.841 62.7566 128.002 66.0214ZM129.974 56.4286C129.41 56.9929 127.117 60.3786 126.312 61.3459C127.237 58.323 128.927 55.5418 131.261 53.3653C131.825 52.8548 132.401 52.3845 132.992 51.9546C131.784 53.1235 130.738 54.6954 129.974 56.4286Z" fill="url(#paint43_linear_60_69)"/>
<path d="M134.521 61.0235C134.521 68.6413 140.718 74.8082 148.323 74.8082C155.928 74.8082 162.085 68.6413 162.085 61.0235C162.085 53.4056 155.928 47.1985 148.323 47.1985C140.718 47.1985 134.521 53.4056 134.521 61.0235Z" fill="url(#paint44_radial_60_69)"/>
<path d="M137.378 61.0235C137.378 67.0694 142.287 71.9867 148.323 71.9867C154.359 71.9867 159.268 67.0694 159.268 61.0235C159.268 54.9373 154.359 50.0602 148.323 50.0602C142.287 50.0602 137.378 54.9373 137.378 61.0235Z" fill="url(#paint45_radial_60_69)"/>
<path d="M147.478 71.3418H148.967C149.45 69.0847 149.007 66.8276 148.605 64.5301H147.88C148.645 66.9082 148.283 69.1653 147.478 71.3418Z" fill="url(#paint46_linear_60_69)"/>
<path d="M145.748 71.1L147.196 71.3418C148.041 69.2056 148.041 66.8679 148.041 64.5704L147.317 64.4495C147.639 66.8679 146.915 69.0847 145.748 71.1Z" fill="url(#paint47_linear_60_69)"/>
<path d="M144.098 70.4954L145.466 71.0194C146.673 69.0444 147.075 66.7872 147.478 64.4898L146.794 64.2479C146.673 66.7066 145.587 68.7219 144.098 70.4954Z" fill="url(#paint48_linear_60_69)"/>
<path d="M142.528 69.649L143.816 70.4148C145.345 68.6816 146.11 66.5051 146.914 64.3286L146.271 63.9658C145.748 66.3842 144.339 68.1577 142.528 69.649Z" fill="url(#paint49_linear_60_69)"/>
<path d="M141.16 68.5607L142.287 69.5281C144.098 68.077 145.265 66.0617 146.391 64.0867L145.828 63.6031C144.902 65.8602 143.172 67.3918 141.16 68.5607Z" fill="url(#paint50_linear_60_69)"/>
<path d="M139.993 67.2306L140.959 68.3592C142.971 67.2709 144.46 65.4975 145.909 63.724L145.466 63.1597C144.138 65.2556 142.206 66.4245 139.993 67.2306Z" fill="url(#paint51_linear_60_69)"/>
<path d="M139.108 65.7393L139.832 67.0291C142.005 66.2633 143.776 64.7719 145.546 63.3209L145.184 62.676C143.534 64.4898 141.402 65.3362 139.108 65.7393Z" fill="url(#paint52_linear_60_69)"/>
<path d="M138.464 64.0867L138.947 65.4974C141.241 65.1347 143.212 63.9658 145.224 62.7969L144.983 62.152C143.011 63.6434 140.758 64.0867 138.464 64.0867Z" fill="url(#paint53_linear_60_69)"/>
<path d="M138.102 62.3536L138.384 63.8046C140.677 63.8852 142.85 63.0791 144.983 62.273L144.862 61.5878C142.689 62.7163 140.396 62.7566 138.102 62.3536Z" fill="url(#paint54_linear_60_69)"/>
<path d="M138.062 60.5801V62.0714C140.315 62.5551 142.609 62.1117 144.862 61.7087V60.9832C142.528 61.749 140.235 61.3862 138.062 60.5801Z" fill="url(#paint55_linear_60_69)"/>
<path d="M138.343 58.8469L138.102 60.298C140.235 61.1444 142.528 61.1444 144.822 61.1444L144.943 60.4189C142.528 60.7413 140.355 60.0158 138.343 58.8469Z" fill="url(#paint56_linear_60_69)"/>
<path d="M138.907 57.1944L138.384 58.5648C140.355 59.774 142.649 60.177 144.902 60.5398L145.144 59.8949C142.689 59.774 140.677 58.6857 138.907 57.1944Z" fill="url(#paint57_linear_60_69)"/>
<path d="M139.752 55.6225L139.028 56.9122C140.758 58.4439 142.891 59.2097 145.063 60.0158L145.426 59.3709C143.051 58.8469 141.241 57.4362 139.752 55.6225Z" fill="url(#paint58_linear_60_69)"/>
<path d="M140.838 54.252L139.913 55.3806C141.321 57.1944 143.333 58.3633 145.345 59.4918L145.788 58.9276C143.534 58.0005 142.005 56.2674 140.838 54.252Z" fill="url(#paint59_linear_60_69)"/>
<path d="M142.166 53.0832L141.04 54.0505C142.126 56.0658 143.897 57.5571 145.667 59.0082L146.23 58.5648C144.178 57.2347 142.971 55.3 142.166 53.0832Z" fill="url(#paint60_linear_60_69)"/>
<path d="M143.695 52.1964L142.408 52.9219C143.132 55.0985 144.621 56.8719 146.11 58.6454L146.713 58.2827C144.903 56.5898 144.098 54.4939 143.695 52.1964Z" fill="url(#paint61_linear_60_69)"/>
<path d="M145.305 51.5515L143.937 52.0352C144.259 54.3327 145.426 56.3076 146.593 58.323L147.277 58.0811C145.788 56.1061 145.305 53.849 145.305 51.5515Z" fill="url(#paint62_linear_60_69)"/>
<path d="M147.035 51.1888L145.587 51.4709C145.546 53.7684 146.311 55.9449 147.116 58.0811L147.84 57.9602C146.713 55.7837 146.633 53.4862 147.035 51.1888Z" fill="url(#paint63_linear_60_69)"/>
<path d="M148.806 51.1485H147.317C146.874 53.4056 147.277 55.7031 147.679 57.9602H148.403C147.679 55.6224 148.001 53.325 148.806 51.1485Z" fill="url(#paint64_linear_60_69)"/>
<path d="M150.536 51.4306L149.087 51.1888C148.242 53.325 148.242 55.6224 148.283 57.9199L148.967 58.0408C148.645 55.6224 149.369 53.4459 150.536 51.4306Z" fill="url(#paint65_linear_60_69)"/>
<path d="M152.226 51.9949L150.818 51.4709C149.61 53.4459 149.248 55.7434 148.846 58.0005L149.53 58.2423C149.611 55.7837 150.737 53.7684 152.226 51.9949Z" fill="url(#paint66_linear_60_69)"/>
<path d="M153.755 52.8413L152.468 52.1158C150.938 53.849 150.174 55.9852 149.409 58.1617L150.013 58.5245C150.536 56.1464 151.985 54.3327 153.755 52.8413Z" fill="url(#paint67_linear_60_69)"/>
<path d="M155.123 53.9296L153.997 53.0025C152.186 54.4133 151.059 56.4286 149.932 58.4439L150.456 58.8872C151.421 56.6301 153.111 55.0985 155.123 53.9296Z" fill="url(#paint68_linear_60_69)"/>
<path d="M156.29 55.2597L155.325 54.1311C153.313 55.2194 151.824 56.9929 150.375 58.7663L150.818 59.3306C152.146 57.275 154.117 56.0658 156.29 55.2597Z" fill="url(#paint69_linear_60_69)"/>
<path d="M157.216 56.7913L156.451 55.5015C154.278 56.227 152.508 57.7184 150.777 59.2097L151.14 59.8143C152.789 58.0005 154.922 57.1944 157.216 56.7913Z" fill="url(#paint70_linear_60_69)"/>
<path d="M157.86 58.4036L157.336 57.0332C155.043 57.3556 153.071 58.5245 151.099 59.6934L151.341 60.3786C153.272 58.8872 155.526 58.4036 157.86 58.4036Z" fill="url(#paint71_linear_60_69)"/>
<path d="M158.182 60.1367L157.94 58.6857C155.606 58.6454 153.474 59.4112 151.301 60.2173L151.421 60.9429C153.594 59.8143 155.888 59.7337 158.182 60.1367Z" fill="url(#paint72_linear_60_69)"/>
<path d="M158.222 61.9102V60.4189C155.968 59.9755 153.715 60.3786 151.462 60.7816L151.421 61.5071C153.795 60.7816 156.049 61.1041 158.222 61.9102Z" fill="url(#paint73_linear_60_69)"/>
<path d="M157.94 63.6434L158.222 62.1923C156.089 61.3459 153.755 61.3459 151.462 61.3862L151.341 62.0714C153.795 61.749 155.928 62.4745 157.94 63.6434Z" fill="url(#paint74_linear_60_69)"/>
<path d="M157.377 65.3362L157.9 63.9255C155.928 62.7163 153.675 62.3536 151.421 61.9505L151.14 62.6357C153.594 62.7163 155.606 63.8449 157.377 65.3362Z" fill="url(#paint75_linear_60_69)"/>
<path d="M156.532 66.8678L157.296 65.5781C155.566 64.0464 153.393 63.2806 151.22 62.5148L150.858 63.1194C153.272 63.6434 155.043 65.0944 156.532 66.8678Z" fill="url(#paint76_linear_60_69)"/>
<path d="M155.445 68.2383L156.411 67.1097C154.962 65.2959 152.95 64.1673 150.979 63.0388L150.496 63.5628C152.79 64.5301 154.278 66.223 155.445 68.2383Z" fill="url(#paint77_linear_60_69)"/>
<path d="M154.117 69.4071L155.244 68.4398C154.158 66.4245 152.387 64.9332 150.617 63.4821L150.053 63.9255C152.146 65.2556 153.313 67.2306 154.117 69.4071Z" fill="url(#paint78_linear_60_69)"/>
<path d="M152.629 70.3342L153.916 69.5684C153.152 67.3918 151.703 65.6184 150.214 63.8852L149.57 64.248C151.381 65.9005 152.226 68.0367 152.629 70.3342Z" fill="url(#paint79_linear_60_69)"/>
<path d="M150.979 70.9791L152.387 70.4551C152.025 68.1576 150.858 66.1826 149.691 64.2076L149.047 64.4495C150.536 66.3842 150.979 68.6413 150.979 70.9791Z" fill="url(#paint80_linear_60_69)"/>
<path d="M149.248 71.3015L150.697 71.0597C150.777 68.7219 149.973 66.5857 149.168 64.4092L148.484 64.5301C149.611 66.7066 149.651 69.0041 149.248 71.3015Z" fill="url(#paint81_linear_60_69)"/>
</g>
<defs>
<linearGradient id="paint0_linear_60_69" x1="10278.5" y1="5671.44" x2="6874.77" y2="2535.09" gradientUnits="userSpaceOnUse">
<stop stop-color="#B3B3B3"/>
<stop offset="1" stop-color="#E7E7E7"/>
</linearGradient>
<linearGradient id="paint1_linear_60_69" x1="58863.9" y1="5390.33" x2="60003.9" y2="3523.36" gradientUnits="userSpaceOnUse">
<stop stop-color="#636363"/>
<stop offset="1" stop-color="#E2E2E2"/>
</linearGradient>
<linearGradient id="paint2_linear_60_69" x1="78247.5" y1="11287.2" x2="77717.6" y2="3777.34" gradientUnits="userSpaceOnUse">
<stop stop-color="#3E3E3E"/>
<stop offset="1" stop-color="#F8F8F8"/>
</linearGradient>
<linearGradient id="paint3_linear_60_69" x1="27015.8" y1="3914.03" x2="24959" y2="4685.92" gradientUnits="userSpaceOnUse">
<stop stop-color="#E2E2E2"/>
<stop offset="1" stop-color="#515148"/>
</linearGradient>
<radialGradient id="paint4_radial_60_69" cx="0" cy="0" r="1" gradientUnits="userSpaceOnUse" gradientTransform="translate(20340.4 3499.34) scale(942.691 944.252)">
<stop offset="0.82" stop-color="#35342D"/>
<stop offset="0.92" stop-color="#ECEBEB"/>
<stop offset="1" stop-color="#DAD9D2"/>
</radialGradient>
<radialGradient id="paint5_radial_60_69" cx="0" cy="0" r="1" gradientUnits="userSpaceOnUse" gradientTransform="translate(16251.9 2807.03) scale(596.511 596.402)">
<stop stop-color="#545454"/>
<stop offset="0.17"/>
<stop offset="0.26"/>
<stop offset="0.29" stop-color="#343420"/>
<stop offset="1" stop-color="#121105"/>
</radialGradient>
<linearGradient id="paint6_linear_60_69" x1="1532.53" y1="1078.75" x2="1502.84" y2="971.351" gradientUnits="userSpaceOnUse">
<stop stop-color="#7C7C4C"/>
<stop offset="1" stop-color="#0D0D0D"/>
</linearGradient>
<linearGradient id="paint7_linear_60_69" x1="1803.24" y1="1119.18" x2="1840.98" y2="1017.42" gradientUnits="userSpaceOnUse">
<stop stop-color="#7C7C4C"/>
<stop offset="1" stop-color="#0D0D0D"/>
</linearGradient>
<linearGradient id="paint8_linear_60_69" x1="2534.3" y1="1147.49" x2="2589.42" y2="1064.44" gradientUnits="userSpaceOnUse">
<stop stop-color="#7C7C4C"/>
<stop offset="1" stop-color="#0D0D0D"/>
</linearGradient>
<linearGradient id="paint9_linear_60_69" x1="3296.1" y1="1134.72" x2="3356.61" y2="1060.11" gradientUnits="userSpaceOnUse">
<stop stop-color="#7C7C4C"/>
<stop offset="1" stop-color="#0D0D0D"/>
</linearGradient>
<linearGradient id="paint10_linear_60_69" x1="3923.1" y1="1079.19" x2="3986.54" y2="1009.35" gradientUnits="userSpaceOnUse">
<stop stop-color="#7C7C4C"/>
<stop offset="1" stop-color="#0D0D0D"/>
</linearGradient>
<linearGradient id="paint11_linear_60_69" x1="4446.8" y1="979.601" x2="4513.73" y2="913.161" gradientUnits="userSpaceOnUse">
<stop stop-color="#7C7C4C"/>
<stop offset="1" stop-color="#0D0D0D"/>
</linearGradient>
<linearGradient id="paint12_linear_60_69" x1="4842.08" y1="844.751" x2="4912.42" y2="781.342" gradientUnits="userSpaceOnUse">
<stop stop-color="#7C7C4C"/>
<stop offset="1" stop-color="#0D0D0D"/>
</linearGradient>
<linearGradient id="paint13_linear_60_69" x1="5055.19" y1="683.814" x2="5131.22" y2="623.861" gradientUnits="userSpaceOnUse">
<stop stop-color="#7C7C4C"/>
<stop offset="1" stop-color="#0D0D0D"/>
</linearGradient>
<linearGradient id="paint14_linear_60_69" x1="5179.37" y1="500.727" x2="5264.66" y2="446.396" gradientUnits="userSpaceOnUse">
<stop stop-color="#7C7C4C"/>
<stop offset="1" stop-color="#0D0D0D"/>
</linearGradient>
<linearGradient id="paint15_linear_60_69" x1="5133.81" y1="315.911" x2="5242.35" y2="286.009" gradientUnits="userSpaceOnUse">
<stop stop-color="#7C7C4C"/>
<stop offset="1" stop-color="#0D0D0D"/>
</linearGradient>
<linearGradient id="paint16_linear_60_69" x1="5093.21" y1="364.84" x2="5196.05" y2="402.908" gradientUnits="userSpaceOnUse">
<stop stop-color="#7C7C4C"/>
<stop offset="1" stop-color="#0D0D0D"/>
</linearGradient>
<linearGradient id="paint17_linear_60_69" x1="5031.07" y1="503.69" x2="5114.34" y2="559.102" gradientUnits="userSpaceOnUse">
<stop stop-color="#7C7C4C"/>
<stop offset="1" stop-color="#0D0D0D"/>
</linearGradient>
<linearGradient id="paint18_linear_60_69" x1="4809.18" y1="631.447" x2="4884.36" y2="691.611" gradientUnits="userSpaceOnUse">
<stop stop-color="#7C7C4C"/>
<stop offset="1" stop-color="#0D0D0D"/>
</linearGradient>
<linearGradient id="paint19_linear_60_69" x1="4487.41" y1="732.064" x2="4557.19" y2="795.888" gradientUnits="userSpaceOnUse">
<stop stop-color="#7C7C4C"/>
<stop offset="1" stop-color="#0D0D0D"/>
</linearGradient>
<linearGradient id="paint20_linear_60_69" x1="4036.7" y1="796.957" x2="4103.25" y2="863.78" gradientUnits="userSpaceOnUse">
<stop stop-color="#7C7C4C"/>
<stop offset="1" stop-color="#0D0D0D"/>
</linearGradient>
<linearGradient id="paint21_linear_60_69" x1="3484.45" y1="824.542" x2="3547.54" y2="894.744" gradientUnits="userSpaceOnUse">
<stop stop-color="#7C7C4C"/>
<stop offset="1" stop-color="#0D0D0D"/>
</linearGradient>
<linearGradient id="paint22_linear_60_69" x1="2828" y1="829.774" x2="2888.03" y2="904.996" gradientUnits="userSpaceOnUse">
<stop stop-color="#7C7C4C"/>
<stop offset="1" stop-color="#0D0D0D"/>
</linearGradient>
<linearGradient id="paint23_linear_60_69" x1="2117.65" y1="799.674" x2="2171.32" y2="884.96" gradientUnits="userSpaceOnUse">
<stop stop-color="#7C7C4C"/>
<stop offset="1" stop-color="#0D0D0D"/>
</linearGradient>
<linearGradient id="paint24_linear_60_69" x1="1400.93" y1="754.289" x2="1430.92" y2="861.511" gradientUnits="userSpaceOnUse">
<stop stop-color="#7C7C4C"/>
<stop offset="1" stop-color="#0D0D0D"/>
</linearGradient>
<linearGradient id="paint25_linear_60_69" x1="1679.08" y1="713.862" x2="1641.35" y2="815.625" gradientUnits="userSpaceOnUse">
<stop stop-color="#7C7C4C"/>
<stop offset="1" stop-color="#0D0D0D"/>
</linearGradient>
<linearGradient id="paint26_linear_60_69" x1="2382.47" y1="675.365" x2="2327.34" y2="758.421" gradientUnits="userSpaceOnUse">
<stop stop-color="#7C7C4C"/>
<stop offset="1" stop-color="#0D0D0D"/>
</linearGradient>
<linearGradient id="paint27_linear_60_69" x1="3142.42" y1="627.054" x2="3081.92" y2="701.667" gradientUnits="userSpaceOnUse">
<stop stop-color="#7C7C4C"/>
<stop offset="1" stop-color="#0D0D0D"/>
</linearGradient>
<linearGradient id="paint28_linear_60_69" x1="3803.02" y1="570.589" x2="3739.07" y2="640.278" gradientUnits="userSpaceOnUse">
<stop stop-color="#7C7C4C"/>
<stop offset="1" stop-color="#0D0D0D"/>
</linearGradient>
<linearGradient id="paint29_linear_60_69" x1="4390.78" y1="507.277" x2="4324.42" y2="573.697" gradientUnits="userSpaceOnUse">
<stop stop-color="#7C7C4C"/>
<stop offset="1" stop-color="#0D0D0D"/>
</linearGradient>
<linearGradient id="paint30_linear_60_69" x1="4874.02" y1="438.499" x2="4803.68" y2="501.908" gradientUnits="userSpaceOnUse">
<stop stop-color="#7C7C4C"/>
<stop offset="1" stop-color="#0D0D0D"/>
</linearGradient>
<linearGradient id="paint31_linear_60_69" x1="5187.02" y1="365.641" x2="5111.2" y2="424.934" gradientUnits="userSpaceOnUse">
<stop stop-color="#7C7C4C"/>
<stop offset="1" stop-color="#0D0D0D"/>
</linearGradient>
<linearGradient id="paint32_linear_60_69" x1="5384.05" y1="283.638" x2="5298.97" y2="337.517" gradientUnits="userSpaceOnUse">
<stop stop-color="#7C7C4C"/>
<stop offset="1" stop-color="#0D0D0D"/>
</linearGradient>
<linearGradient id="paint33_linear_60_69" x1="5429.36" y1="196.983" x2="5323.42" y2="228.823" gradientUnits="userSpaceOnUse">
<stop stop-color="#7C7C4C"/>
<stop offset="1" stop-color="#0D0D0D"/>
</linearGradient>
<linearGradient id="paint34_linear_60_69" x1="5500.85" y1="240.647" x2="5399.28" y2="200.958" gradientUnits="userSpaceOnUse">
<stop stop-color="#7C7C4C"/>
<stop offset="1" stop-color="#0D0D0D"/>
</linearGradient>
<linearGradient id="paint35_linear_60_69" x1="5504.44" y1="351.945" x2="5421.17" y2="296.533" gradientUnits="userSpaceOnUse">
<stop stop-color="#7C7C4C"/>
<stop offset="1" stop-color="#0D0D0D"/>
</linearGradient>
<linearGradient id="paint36_linear_60_69" x1="5315.97" y1="479.119" x2="5241.88" y2="418.63" gradientUnits="userSpaceOnUse">
<stop stop-color="#7C7C4C"/>
<stop offset="1" stop-color="#0D0D0D"/>
</linearGradient>
<linearGradient id="paint37_linear_60_69" x1="4994.6" y1="612.274" x2="4924.81" y2="548.45" gradientUnits="userSpaceOnUse">
<stop stop-color="#7C7C4C"/>
<stop offset="1" stop-color="#0D0D0D"/>
</linearGradient>
<linearGradient id="paint38_linear_60_69" x1="4508.24" y1="740.827" x2="4441.71" y2="674.572" gradientUnits="userSpaceOnUse">
<stop stop-color="#7C7C4C"/>
<stop offset="1" stop-color="#0D0D0D"/>
</linearGradient>
<linearGradient id="paint39_linear_60_69" x1="3890.08" y1="856.404" x2="3826.87" y2="785.564" gradientUnits="userSpaceOnUse">
<stop stop-color="#7C7C4C"/>
<stop offset="1" stop-color="#0D0D0D"/>
</linearGradient>
<linearGradient id="paint40_linear_60_69" x1="3142.3" y1="962.542" x2="3081.79" y2="887.818" gradientUnits="userSpaceOnUse">
<stop stop-color="#7C7C4C"/>
<stop offset="1" stop-color="#0D0D0D"/>
</linearGradient>
<linearGradient id="paint41_linear_60_69" x1="2330.93" y1="1033.37" x2="2276.55" y2="949.05" gradientUnits="userSpaceOnUse">
<stop stop-color="#7C7C4C"/>
<stop offset="1" stop-color="#0D0D0D"/>
</linearGradient>
<linearGradient id="paint42_linear_60_69" x1="94202.6" y1="3253.08" x2="32705.8" y2="-40682.1" gradientUnits="userSpaceOnUse">
<stop stop-color="#444441"/>
<stop offset="1" stop-color="#E2E2E2"/>
</linearGradient>
<linearGradient id="paint43_linear_60_69" x1="13501.6" y1="6188.13" x2="13654.3" y2="4808.2" gradientUnits="userSpaceOnUse">
<stop stop-color="#515148"/>
<stop offset="1" stop-color="#E2E2E2"/>
</linearGradient>
<radialGradient id="paint44_radial_60_69" cx="0" cy="0" r="1" gradientUnits="userSpaceOnUse" gradientTransform="translate(10322.2 4213.5) scale(942.691 944.252)">
<stop offset="0.82" stop-color="#8E8C80"/>
<stop offset="0.94" stop-color="#ECEBEB"/>
<stop offset="1" stop-color="#DAD9D2"/>
</radialGradient>
<radialGradient id="paint45_radial_60_69" cx="0" cy="0" r="1" gradientUnits="userSpaceOnUse" gradientTransform="translate(8206.14 3369.74) scale(595.416 596.402)">
<stop stop-color="#545454"/>
<stop offset="0.17"/>
<stop offset="0.26"/>
<stop offset="0.29" stop-color="#343420"/>
<stop offset="1" stop-color="#121105"/>
</radialGradient>
<linearGradient id="paint46_linear_60_69" x1="832.023" y1="1270.21" x2="832.023" y2="1155.09" gradientUnits="userSpaceOnUse">
<stop stop-color="#7B7B49"/>
<stop offset="1" stop-color="#0D0D0D"/>
</linearGradient>
<linearGradient id="paint47_linear_60_69" x1="1058.16" y1="1322.99" x2="1106.68" y2="1230.56" gradientUnits="userSpaceOnUse">
<stop stop-color="#7B7B49"/>
<stop offset="1" stop-color="#0D0D0D"/>
</linearGradient>
<linearGradient id="paint48_linear_60_69" x1="1469.1" y1="1332.54" x2="1527.22" y2="1253.01" gradientUnits="userSpaceOnUse">
<stop stop-color="#7B7B49"/>
<stop offset="1" stop-color="#0D0D0D"/>
</linearGradient>
<linearGradient id="paint49_linear_60_69" x1="1833.37" y1="1295.08" x2="1895.17" y2="1222.03" gradientUnits="userSpaceOnUse">
<stop stop-color="#7B7B49"/>
<stop offset="1" stop-color="#0D0D0D"/>
</linearGradient>
<linearGradient id="paint50_linear_60_69" x1="2121.15" y1="1208.91" x2="2186.06" y2="1140.45" gradientUnits="userSpaceOnUse">
<stop stop-color="#7B7B49"/>
<stop offset="1" stop-color="#0D0D0D"/>
</linearGradient>
<linearGradient id="paint51_linear_60_69" x1="2335.13" y1="1074.46" x2="2403.7" y2="1009.05" gradientUnits="userSpaceOnUse">
<stop stop-color="#7B7B49"/>
<stop offset="1" stop-color="#0D0D0D"/>
</linearGradient>
<linearGradient id="paint52_linear_60_69" x1="2480.73" y1="908.911" x2="2553" y2="846.679" gradientUnits="userSpaceOnUse">
<stop stop-color="#7B7B49"/>
<stop offset="1" stop-color="#0D0D0D"/>
</linearGradient>
<linearGradient id="paint53_linear_60_69" x1="2547.81" y1="707.481" x2="2627.37" y2="649.851" gradientUnits="userSpaceOnUse">
<stop stop-color="#7B7B49"/>
<stop offset="1" stop-color="#0D0D0D"/>
</linearGradient>
<linearGradient id="paint54_linear_60_69" x1="2542.99" y1="484.514" x2="2634.06" y2="435.257" gradientUnits="userSpaceOnUse">
<stop stop-color="#7B7B49"/>
<stop offset="1" stop-color="#0D0D0D"/>
</linearGradient>
<linearGradient id="paint55_linear_60_69" x1="2471.31" y1="377.963" x2="2586.23" y2="377.963" gradientUnits="userSpaceOnUse">
<stop stop-color="#7B7B49"/>
<stop offset="1" stop-color="#0D0D0D"/>
</linearGradient>
<linearGradient id="paint56_linear_60_69" x1="2446.84" y1="476.063" x2="2538.95" y2="523.972" gradientUnits="userSpaceOnUse">
<stop stop-color="#7B7B49"/>
<stop offset="1" stop-color="#0D0D0D"/>
</linearGradient>
<linearGradient id="paint57_linear_60_69" x1="2388.19" y1="645.317" x2="2467.11" y2="703.486" gradientUnits="userSpaceOnUse">
<stop stop-color="#7B7B49"/>
<stop offset="1" stop-color="#0D0D0D"/>
</linearGradient>
<linearGradient id="paint58_linear_60_69" x1="2245.28" y1="799.419" x2="2318.04" y2="861.114" gradientUnits="userSpaceOnUse">
<stop stop-color="#7B7B49"/>
<stop offset="1" stop-color="#0D0D0D"/>
</linearGradient>
<linearGradient id="paint59_linear_60_69" x1="2059.85" y1="904.671" x2="2128.38" y2="968.996" gradientUnits="userSpaceOnUse">
<stop stop-color="#7B7B49"/>
<stop offset="1" stop-color="#0D0D0D"/>
</linearGradient>
<linearGradient id="paint60_linear_60_69" x1="1831.71" y1="970.866" x2="1896.72" y2="1039.41" gradientUnits="userSpaceOnUse">
<stop stop-color="#7B7B49"/>
<stop offset="1" stop-color="#0D0D0D"/>
</linearGradient>
<linearGradient id="paint61_linear_60_69" x1="1545.18" y1="1003.42" x2="1607.16" y2="1075.34" gradientUnits="userSpaceOnUse">
<stop stop-color="#7B7B49"/>
<stop offset="1" stop-color="#0D0D0D"/>
</linearGradient>
<linearGradient id="paint62_linear_60_69" x1="1236.74" y1="1000.91" x2="1295.07" y2="1079.76" gradientUnits="userSpaceOnUse">
<stop stop-color="#7B7B49"/>
<stop offset="1" stop-color="#0D0D0D"/>
</linearGradient>
<linearGradient id="paint63_linear_60_69" x1="889.489" y1="969.939" x2="938.479" y2="1061.68" gradientUnits="userSpaceOnUse">
<stop stop-color="#7B7B49"/>
<stop offset="1" stop-color="#0D0D0D"/>
</linearGradient>
<linearGradient id="paint64_linear_60_69" x1="708.426" y1="915.558" x2="708.426" y2="1030.68" gradientUnits="userSpaceOnUse">
<stop stop-color="#7B7B49"/>
<stop offset="1" stop-color="#0D0D0D"/>
</linearGradient>
<linearGradient id="paint65_linear_60_69" x1="915.72" y1="882.341" x2="867.316" y2="973.993" gradientUnits="userSpaceOnUse">
<stop stop-color="#7B7B49"/>
<stop offset="1" stop-color="#0D0D0D"/>
</linearGradient>
<linearGradient id="paint66_linear_60_69" x1="1312.62" y1="841.02" x2="1255.05" y2="921.179" gradientUnits="userSpaceOnUse">
<stop stop-color="#7B7B49"/>
<stop offset="1" stop-color="#0D0D0D"/>
</linearGradient>
<linearGradient id="paint67_linear_60_69" x1="1673.94" y1="776.296" x2="1612.36" y2="849.374" gradientUnits="userSpaceOnUse">
<stop stop-color="#7B7B49"/>
<stop offset="1" stop-color="#0D0D0D"/>
</linearGradient>
<linearGradient id="paint68_linear_60_69" x1="2007.75" y1="703.85" x2="1942.7" y2="772.294" gradientUnits="userSpaceOnUse">
<stop stop-color="#7B7B49"/>
<stop offset="1" stop-color="#0D0D0D"/>
</linearGradient>
<linearGradient id="paint69_linear_60_69" x1="2310.61" y1="623.475" x2="2242.55" y2="688.293" gradientUnits="userSpaceOnUse">
<stop stop-color="#7B7B49"/>
<stop offset="1" stop-color="#0D0D0D"/>
</linearGradient>
<linearGradient id="paint70_linear_60_69" x1="2549.7" y1="528.179" x2="2478" y2="590.496" gradientUnits="userSpaceOnUse">
<stop stop-color="#7B7B49"/>
<stop offset="1" stop-color="#0D0D0D"/>
</linearGradient>
<linearGradient id="paint71_linear_60_69" x1="2719.31" y1="428.374" x2="2641.13" y2="486.37" gradientUnits="userSpaceOnUse">
<stop stop-color="#7B7B49"/>
<stop offset="1" stop-color="#0D0D0D"/>
</linearGradient>
<linearGradient id="paint72_linear_60_69" x1="2813.54" y1="315.494" x2="2721.05" y2="364.425" gradientUnits="userSpaceOnUse">
<stop stop-color="#7B7B49"/>
<stop offset="1" stop-color="#0D0D0D"/>
</linearGradient>
<linearGradient id="paint73_linear_60_69" x1="2825.37" y1="258.196" x2="2710.45" y2="258.196" gradientUnits="userSpaceOnUse">
<stop stop-color="#7B7B49"/>
<stop offset="1" stop-color="#0D0D0D"/>
</linearGradient>
<linearGradient id="paint74_linear_60_69" x1="2895.47" y1="339.256" x2="2803.53" y2="290.577" gradientUnits="userSpaceOnUse">
<stop stop-color="#7B7B49"/>
<stop offset="1" stop-color="#0D0D0D"/>
</linearGradient>
<linearGradient id="paint75_linear_60_69" x1="2878.89" y1="496" x2="2799.32" y2="438.04" gradientUnits="userSpaceOnUse">
<stop stop-color="#7B7B49"/>
<stop offset="1" stop-color="#0D0D0D"/>
</linearGradient>
<linearGradient id="paint76_linear_60_69" x1="2771.9" y1="648.872" x2="2699.63" y2="586.639" gradientUnits="userSpaceOnUse">
<stop stop-color="#7B7B49"/>
<stop offset="1" stop-color="#0D0D0D"/>
</linearGradient>
<linearGradient id="paint77_linear_60_69" x1="2572.78" y1="799.807" x2="2504.72" y2="734.989" gradientUnits="userSpaceOnUse">
<stop stop-color="#7B7B49"/>
<stop offset="1" stop-color="#0D0D0D"/>
</linearGradient>
<linearGradient id="paint78_linear_60_69" x1="2281.43" y1="946.307" x2="2216.5" y2="878.355" gradientUnits="userSpaceOnUse">
<stop stop-color="#7B7B49"/>
<stop offset="1" stop-color="#0D0D0D"/>
</linearGradient>
<linearGradient id="paint79_linear_60_69" x1="1933.55" y1="1072.51" x2="1871.66" y2="1000.02" gradientUnits="userSpaceOnUse">
<stop stop-color="#7B7B49"/>
<stop offset="1" stop-color="#0D0D0D"/>
</linearGradient>
<linearGradient id="paint80_linear_60_69" x1="1515.4" y1="1172.69" x2="1457.25" y2="1094.56" gradientUnits="userSpaceOnUse">
<stop stop-color="#7B7B49"/>
<stop offset="1" stop-color="#0D0D0D"/>
</linearGradient>
<linearGradient id="paint81_linear_60_69" x1="1050.18" y1="1240.93" x2="1000.64" y2="1149.09" gradientUnits="userSpaceOnUse">
<stop stop-color="#7B7B49"/>
<stop offset="1" stop-color="#0D0D0D"/>
</linearGradient>
<clipPath id="clip0_60_69">
<rect width="336" height="79" fill="white"/>
</clipPath>
</defs>
</svg>
